#!OML:ASF X:\für Bonn\!DataBase\2005_08_11_Bastian_Final\c3d\Bastian.ASF
:FULLY-SPECIFIED
:DEGREES
310
root 0.244609 1.79924 19.7452 -616.414 3.43401 -168.621
lowerback 63.5476 2.92032 14.6787
upperback 23.4017 -7.34976 6.53063
thorax 6.5216 -12.1318 2.4509
lowerneck -12.6157 -3.58299 -9.99459
upperneck -3.57764 -2.96698 9.19818
head 1.2682 -0.9457 4.27677
rclavicle -3.04141e-014 -1.74931e-014
rhumerus -62.3569 40.8232 -106.984
rradius 52.6543
rwrist -22.7093
rhand -33.1353 -13.4369
rfingers 7.12502
rthumb -6.34484 -43.3218
lclavicle -3.04141e-014 -1.74931e-014
lhumerus -40.6985 -7.93826 78.4654
lradius 46.8165
lwrist 47.8919
lhand -25.1463 -0.882614
lfingers 7.12502
lthumb 1.37028 29.0927
rfemur -79.6283 -35.441 34.5864
rtibia 145.574
rfoot 8.92642 11.5807
rtoes -12.7672
lfemur -41.624 8.66228 -16.8806
ltibia 59.6558
lfoot 9.64005 -2.59292
ltoes -11.188
311
root 0.270345 1.78011 19.7786 -616.626 3.48972 -168.926
lowerback 63.7924 3.17432 14.6404
upperback 23.5482 -7.26648 6.51765
thorax 6.69619 -12.1852 2.39458
lowerneck -13.2512 -3.70632 -9.90089
upperneck -3.72385 -3.02939 9.24221
head 1.32882 -0.938841 4.26906
rclavicle -1.66979e-014 2.38542e-014
rhumerus -62.2419 41.1177 -106.919
rradius 53.4801
rwrist -22.9522
rhand -33.0519 -13.7045
rfingers 7.12502
rthumb -6.26433 -43.5919
lclavicle -1.66979e-014 2.38542e-014
lhumerus -40.8329 -8.01923 78.1939
lradius 47.7957
lwrist 48.0307
lhand -25.4264 -0.702729
lfingers 7.12502
lthumb 1.09971 29.2742
rfemur -79.478 -33.0624 34.4887
rtibia 144.661
rfoot 9.37772 11.0192
rtoes -13.126
lfemur -41.2395 8.85052 -16.669
ltibia 59.2522
lfoot 9.73017 -2.25413
ltoes -11.5525
312
root 0.291722 1.76057 19.8079 -616.846 3.5998 -169.345
lowerback 64.0975 3.43364 14.6093
upperback 23.6571 -7.1499 6.44307
thorax 6.81641 -12.2078 2.27073
lowerneck -13.8069 -3.81586 -9.78022
upperneck -3.84251 -3.09203 9.2527
head 1.38341 -0.937414 4.24676
rclavicle -1.04561e-013 3.97569e-014
rhumerus -62.1794 41.4104 -106.937
rradius 54.3148
rwrist -23.1796
rhand -32.8213 -14.0763
rfingers 7.12502
rthumb -6.04164 -43.9702
lclavicle -1.04561e-013 3.97569e-014
lhumerus -40.9636 -8.04527 77.886
lradius 48.7065
lwrist 48.0522
lhand -25.752 -0.432695
lfingers 7.12502
lthumb 0.785262 29.5456
rfemur -79.2287 -30.2166 34.3233
rtibia 143.622
rfoot 9.742 10.1759
rtoes -13.2491
lfemur -40.8534 9.09768 -16.4386
ltibia 58.9116
lfoot 9.70413 -1.84098
ltoes -12.3663
313
root 0.308982 1.7416 19.833 -617.054 3.68135 -169.811
lowerback 64.3482 3.69432 14.5364
upperback 23.7616 -7.03635 6.34636
thorax 6.92415 -12.2197 2.14062
lowerneck -14.1788 -3.92239 -9.74127
upperneck -4.02599 -3.15686 9.29033
head 1.39236 -0.941538 4.24745
rclavicle 2.5842e-014 1.63003e-014
rhumerus -62.1142 41.5449 -106.815
rradius 55.2125
rwrist -23.1709
rhand -32.4794 -14.4483
rfingers 7.12502
rthumb -5.71157 -44.3514
lclavicle 2.5842e-014 1.63003e-014
lhumerus -41.0587 -7.9499 77.5788
lradius 49.483
lwrist 47.9672
lhand -25.9886 -0.218723
lfingers 7.12502
lthumb 0.556781 29.7603
rfemur -78.9917 -27.4779 34.0911
rtibia 142.485
rfoot 10.0685 9.13358
rtoes -12.7237
lfemur -40.5038 9.31083 -16.2534
ltibia 58.6246
lfoot 9.5647 -1.42727
ltoes -13.6835
314
root 0.32273 1.72451 19.8559 -617.263 3.77142 -170.303
lowerback 64.5725 3.90274 14.4154
upperback 23.7723 -6.90269 6.17685
thorax 6.90076 -12.1731 1.9724
lowerneck -14.0455 -3.96196 -9.72541
upperneck -4.29719 -3.19262 9.32093
head 1.29573 -0.953287 4.25468
rclavicle 3.73715e-014 -7.95139e-016
rhumerus -62.3616 41.5815 -106.928
rradius 56.0919
rwrist -23.1702
rhand -32.1329 -14.7406
rfingers 7.12502
rthumb -5.37706 -44.6524
lclavicle 3.73715e-014 -7.95139e-016
lhumerus -41.407 -7.94536 77.3032
lradius 50.2995
lwrist 47.8721
lhand -26.2526 0.0203883
lfingers 7.12502
lthumb 0.301763 29.9999
rfemur -78.7001 -24.8749 33.8321
rtibia 141.229
rfoot 10.333 7.88676
rtoes -11.7519
lfemur -40.158 9.50226 -16.0555
ltibia 58.3971
lfoot 9.33005 -0.991401
ltoes -15.043
315
root 0.33495 1.70948 19.8786 -617.5 3.85101 -170.766
lowerback 64.735 4.10063 14.2765
upperback 23.7859 -6.78395 6.02461
thorax 6.88192 -12.1322 1.83146
lowerneck -13.7515 -3.96441 -9.78165
upperneck -4.56337 -3.19363 9.36971
head 1.17452 -0.955321 4.28244
rclavicle 4.47266e-014 -1.43125e-014
rhumerus -62.7091 41.6335 -107.052
rradius 57.0096
rwrist -23.0802
rhand -31.6813 -15.1036
rfingers 7.12502
rthumb -4.94102 -45.026
lclavicle 4.47266e-014 -1.43125e-014
lhumerus -41.7329 -7.84651 77.0376
lradius 51.0511
lwrist 47.7136
lhand -26.399 0.342338
lfingers 7.12502
lthumb 0.160396 30.322
rfemur -78.3647 -22.6565 33.5953
rtibia 139.899
rfoot 10.5279 6.49561
rtoes -10.5197
lfemur -39.7931 9.69173 -15.8766
ltibia 58.1985
lfoot 9.07801 -0.597461
ltoes -16.4279
316
root 0.346304 1.69768 19.8988 -617.736 3.88937 -171.184
lowerback 64.783 4.26306 14.148
upperback 23.8483 -6.71437 5.85668
thorax 6.92225 -12.1054 1.6663
lowerneck -13.5334 -3.9771 -9.82355
upperneck -4.73766 -3.21276 9.38212
head 1.09247 -0.967643 4.29456
rclavicle -4.33351e-014 2.46493e-014
rhumerus -63.072 41.7088 -107.221
rradius 57.9395
rwrist -22.9887
rhand -31.2535 -15.4445
rfingers 7.12502
rthumb -4.52793 -45.3761
lclavicle -4.33351e-014 2.46493e-014
lhumerus -41.9761 -7.80724 76.7565
lradius 51.8075
lwrist 47.6176
lhand -26.6436 0.678823
lfingers 7.12502
lthumb -0.0759127 30.6586
rfemur -77.9788 -20.9422 33.3765
rtibia 138.5
rfoot 10.6659 5.04491
rtoes -9.01525
lfemur -39.44 9.81409 -15.7377
ltibia 58.0525
lfoot 8.71314 -0.0970995
ltoes -17.4582
317
root 0.356991 1.68753 19.9154 -617.985 3.90226 -171.538
lowerback 64.8131 4.38048 14.0383
upperback 23.8877 -6.6568 5.70375
thorax 6.9385 -12.074 1.51939
lowerneck -13.3009 -3.97654 -9.83836
upperneck -4.83626 -3.23169 9.35068
head 1.02881 -0.985374 4.28829
rclavicle -2.20651e-014 -2.34566e-014
rhumerus -63.4919 41.7154 -107.367
rradius 58.8852
rwrist -22.7935
rhand -30.807 -15.6998
rfingers 7.12502
rthumb -4.09674 -45.6402
lclavicle -2.20651e-014 -2.34566e-014
lhumerus -42.1746 -7.75304 76.5055
lradius 52.4536
lwrist 47.4793
lhand -26.8394 0.937845
lfingers 7.12502
lthumb -0.264979 30.9174
rfemur -77.5478 -19.7139 33.1875
rtibia 137.066
rfoot 10.6993 3.62016
rtoes -7.72092
lfemur -39.0919 9.90072 -15.6178
ltibia 57.9642
lfoot 8.29657 0.3975
ltoes -18.0654
318
root 0.367442 1.67741 19.9304 -618.234 3.94405 -171.878
lowerback 64.7905 4.4805 13.9431
upperback 23.9307 -6.60169 5.5394
thorax 6.95748 -12.033 1.3518
lowerneck -13.0671 -3.97584 -9.87054
upperneck -4.88183 -3.25616 9.33847
head 0.981956 -1.00756 4.29024
rclavicle -1.05356e-014 -1.70955e-014
rhumerus -63.9559 41.7105 -107.552
rradius 59.8171
rwrist -22.5275
rhand -30.3546 -16.0007
rfingers 7.12502
rthumb -3.65991 -45.949
lclavicle -1.05356e-014 -1.70955e-014
lhumerus -42.3894 -7.73836 76.2412
lradius 53.0939
lwrist 47.3207
lhand -26.952 1.16718
lfingers 7.12502
lthumb -0.373763 31.1466
rfemur -77.0546 -18.6963 33.0737
rtibia 135.584
rfoot 10.6307 2.21881
rtoes -6.52947
lfemur -38.7956 9.98419 -15.4665
ltibia 57.951
lfoot 7.75622 0.891636
ltoes -18.9021
319
root 0.376928 1.66513 19.9419 -618.474 3.97418 -172.211
lowerback 64.6702 4.59019 13.8469
upperback 24.0193 -6.54986 5.38163
thorax 7.03041 -11.9917 1.17692
lowerneck -12.8932 -3.97495 -9.89986
upperneck -4.8544 -3.28198 9.3379
head 0.966223 -1.03018 4.29438
rclavicle 2.54444e-014 -1.27222e-014
rhumerus -64.3525 41.6413 -107.692
rradius 60.7349
rwrist -22.166
rhand -29.9032 -16.296
rfingers 7.12502
rthumb -3.22396 -46.2514
lclavicle 2.54444e-014 -1.27222e-014
lhumerus -42.5224 -7.71592 75.9707
lradius 53.6758
lwrist 47.1781
lhand -27.102 1.42919
lfingers 7.12502
lthumb -0.518624 31.4083
rfemur -76.5337 -17.8423 32.9507
rtibia 134.066
rfoot 10.4864 0.89163
rtoes -6.42182
lfemur -38.545 10.0326 -15.3251
ltibia 57.9957
lfoot 7.20709 1.3874
ltoes -19.5384
320
root 0.385287 1.65188 19.9521 -618.724 3.99126 -172.553
lowerback 64.5141 4.69649 13.7381
upperback 24.1135 -6.50146 5.2143
thorax 7.10729 -11.9467 0.995763
lowerneck -12.7258 -3.96943 -9.90872
upperneck -4.73979 -3.31614 9.3024
head 0.976594 -1.06148 4.2832
rclavicle 1.63003e-014 -7.15625e-015
rhumerus -64.8316 41.6066 -107.866
rradius 61.6807
rwrist -21.7803
rhand -29.4779 -16.564
rfingers 7.12502
rthumb -2.81321 -46.5252
lclavicle 1.63003e-014 -7.15625e-015
lhumerus -42.6584 -7.70656 75.7105
lradius 54.2282
lwrist 46.9835
lhand -27.1714 1.54026
lfingers 7.12502
lthumb -0.585622 31.5192
rfemur -75.9731 -17.0604 32.8031
rtibia 132.518
rfoot 10.2854 -0.253412
rtoes -6.99489
lfemur -38.2955 10.1252 -15.225
ltibia 58.0543
lfoot 6.74879 1.8256
ltoes -20.0784
321
root 0.393411 1.63718 19.9599 -618.973 3.99876 -172.87
lowerback 64.3497 4.7909 13.6234
upperback 24.1883 -6.44803 5.05818
thorax 7.16142 -11.894 0.833381
lowerneck -12.5882 -3.96471 -9.91738
upperneck -4.54429 -3.35798 9.24857
head 1.01553 -1.09886 4.26509
rclavicle 7.7526e-015 -4.21423e-014
rhumerus -65.2936 41.5084 -108.015
rradius 62.6258
rwrist -21.3001
rhand -29.0272 -16.9798
rfingers 7.12502
rthumb -2.37796 -46.9463
lclavicle 7.7526e-015 -4.21423e-014
lhumerus -42.7836 -7.69327 75.4628
lradius 54.7154
lwrist 46.7847
lhand -27.196 1.59858
lfingers 7.12502
lthumb -0.609363 31.5775
rfemur -75.4015 -16.313 32.6324
rtibia 130.959
rfoot 10.0425 -1.21585
rtoes -7.68306
lfemur -38.0366 10.1854 -15.1331
ltibia 58.0863
lfoot 6.34148 2.20834
ltoes -20.2274
322
root 0.400087 1.62334 19.9651 -619.204 3.98804 -173.192
lowerback 64.0935 4.90165 13.4956
upperback 24.3094 -6.39643 4.89706
thorax 7.26858 -11.8398 0.656296
lowerneck -12.4558 -3.95448 -9.90305
upperneck -4.33077 -3.39628 9.20147
head 1.0601 -1.13479 4.24535
rclavicle -1.47101e-014 -7.95139e-016
rhumerus -65.7414 41.4417 -108.139
rradius 63.6024
rwrist -20.7392
rhand -28.5413 -17.4151
rfingers 7.12502
rthumb -1.90873 -47.3863
lclavicle -1.47101e-014 -7.95139e-016
lhumerus -42.8811 -7.70613 75.2095
lradius 55.2423
lwrist 46.6056
lhand -27.2611 1.64579
lfingers 7.12502
lthumb -0.672238 31.6245
rfemur -74.7821 -15.5647 32.4059
rtibia 129.366
rfoot 9.8178 -1.91619
rtoes -8.37481
lfemur -37.7662 10.2936 -15.0852
ltibia 58.0757
lfoot 5.98912 2.51843
ltoes -20.1151
